PathFileType	4	(X/Y/Z)	Patient4_TMGait_0pt7_01_right_24.trc.trc
DataRate	CameraRate	NumFrames	NumMarkers	Units	OrigDataRate	OrigDataStartFrame	OrigNumFrames
86.956521739130	86.956521739130	4	33	mm	86.956521739130	106	       141
Frame#	Time	Sacral			L.Shoulder			Chest			R.Shoulder			Neck			R.ASIS			L.ASIS			R.Thigh.Superior			R.Thigh.Lateral			R.Thigh.Inferior			R.Patella			L.Thigh.Superior			L.Thigh.Lateral			L.Thigh.Inferior			L.Patella			L.Shank.Superior			L.Shank.Lateral			L.Shank.Inferior			R.Shank.Superior			R.Shank.Lateral			R.Shank.Inferior			R.Heel			R.Midfoot.Superior			R.Midfoot.Lateral			R.Toe			L.Heel			L.Midfoot.Lateral			L.Midfoot.Superior			L.Toe			L.Elbow			L.Wrist			R.Elbow			R.Wrist			
		X1	Y1	Z1	X2	Y2	Z2	X3	Y3	Z3	X4	Y4	Z4	X5	Y5	Z5	X6	Y6	Z6	X7	Y7	Z7	X8	Y8	Z8	X9	Y9	Z9	X10	Y10	Z10	X11	Y11	Z11	X12	Y12	Z12	X13	Y13	Z13	X14	Y14	Z14	X15	Y15	Z15	X16	Y16	Z16	X17	Y17	Z17	X18	Y18	Z18	X19	Y19	Z19	X20	Y20	Z20	X21	Y21	Z21	X22	Y22	Z22	X23	Y23	Z23	X24	Y24	Z24	X25	Y25	Z25	X26	Y26	Z26	X27	Y27	Z27	X28	Y28	Z28	X29	Y29	Z29	X30	Y30	Z30	X31	Y31	Z31	X32	Y32	Z32	X33	Y33	Z33	

106	28.277500000000	847.995646355786	1013.410680208239	427.533255264476	1051.213061105848	1425.350654314523	228.071053553953	1147.365199482131	1355.242678386327	393.773656128721	1068.037396003905	1444.326551114983	562.231038647039	1060.454071910275	1493.630316546513	379.346857967444	1073.920312897455	947.564923330309	544.017399516115	1060.022229069132	962.836301373425	269.987439061029	1165.428554302434	793.030919138453	524.052330875576	1135.096973764314	672.883672857762	607.162987786839	1229.966786966198	638.464131021646	532.465546241424	1260.979687943814	532.267314326052	560.195647396653	1093.347935957042	749.312123800716	294.640476181467	992.123038613070	640.658596423065	240.606032972626	1073.436299088233	556.239578465515	297.582559134766	1068.070945584966	487.483952010838	307.746384463339	1039.445623974068	418.188751841556	302.752836068498	941.570589634180	306.205553687575	260.409895224007	995.965635015886	194.634671680680	329.859891373283	1200.304492088991	447.210393524641	570.255575473785	1090.889654691626	385.192861800617	633.210253410632	1100.457340329679	273.568176995055	589.492976914022	918.608376339593	167.567370210676	564.987436361167	1095.227528684830	151.016233367116	611.171496051257	987.730511728844	129.138824678170	643.090463050903	1181.449655619389	57.713376038500	647.168577190934	868.552230350438	40.074011328268	385.807365092180	938.017473688306	35.370785654428	301.185673243285	1022.415414974889	96.561896926093	322.050423600690	1149.259573616837	44.328862428426	287.941036604622	1029.728215869675	1081.783842391656	97.976852138059	1212.191424777650	894.490422157592	94.344929154290	986.853144963185	1117.032939992020	708.401394699386	1106.562128628331	883.955802457386	714.005270383497	
107	28.289000000000	847.261380817729	1013.161779355462	427.251016025748	1051.921200578826	1424.762764551227	228.329385163172	1147.142115070090	1354.583747280113	394.520974997327	1067.240592519300	1443.931108970046	562.577348975460	1060.573787474974	1493.112820274036	379.548488045589	1072.678804152539	947.306744973468	544.706683791500	1059.815590300658	962.450390628456	270.472438227600	1164.004653331094	792.957474394345	524.734829859024	1133.764693878866	672.925840397708	608.106167954873	1228.029011215025	638.230901832478	533.001111365961	1260.458821583317	534.318788712030	560.983359472416	1091.455122336863	748.271034928174	295.181382571202	989.110861692080	640.376619323023	240.887185275517	1069.249404674489	555.245090267652	298.066494757759	1063.106322520225	486.564423818173	308.416263415131	1034.176929427585	417.476345879147	303.249933379301	935.694734056728	306.191776775576	260.444044500616	988.894628801120	194.212794848135	330.100352280441	1203.991503426255	447.914463358707	572.252481298963	1099.423722363222	380.124887247670	636.987083640824	1115.166608001337	268.863079893581	593.767446948905	939.919679399369	152.553819547378	571.535536758761	1117.534270741739	145.734410375577	616.485522826745	1011.603599806696	118.433839635459	649.328786612966	1208.817399144095	57.401957989621	652.484065838439	860.485901851830	40.098195162657	385.775380691505	929.928803783322	35.378814364156	301.181784640292	1014.410989697180	96.437031418208	322.162404128009	1141.221476014253	44.067587704708	287.959770709507	1032.934085070876	1082.247261140756	95.973828681955	1221.157237850888	900.970800219792	93.168449184701	981.964775284360	1118.292011889875	709.747066651243	1088.868437810976	879.033288721115	723.338675814765	
108	28.300500000000	846.627663546448	1012.909180795151	427.122889342583	1052.664870823146	1424.149477019802	228.768284170662	1147.020471891579	1353.847516064640	395.387062411435	1066.641308237315	1443.461232229909	563.088495441334	1060.788292886266	1492.539927082454	379.925410138078	1071.474610072657	946.910098709156	545.532099675590	1059.716973113416	962.058883559313	271.074219755895	1162.236387847497	792.352300285981	525.551386939292	1131.717747626704	672.518446409457	609.178174325481	1225.306782044824	637.330668191685	533.692991893201	1259.009741060397	535.875903587455	561.808279992805	1089.541845779278	747.191916057409	295.900330567508	986.051837951176	640.086058684387	241.292008842994	1064.956350469321	554.236706039605	298.684853016556	1058.033569683314	485.654802676816	309.196387465541	1028.800274725240	416.771179241209	303.836300084450	929.741327303131	306.174112785427	260.541631833855	981.774512424404	193.791053522521	330.391849516690	1206.982589013089	448.413911350942	574.240017999192	1107.854642279406	374.961170377320	640.834929788253	1129.892171874948	264.515992478531	597.909076949194	962.107629908176	138.054326411409	577.971429623330	1140.212590768740	141.123980698142	621.456683831835	1036.235477000605	108.383652081612	655.322582184836	1236.416816717339	58.139440712936	657.226568985057	852.424778473384	40.112443815538	385.744836536246	921.833166320384	35.383616003424	301.180607681968	1006.395039167578	96.316577270526	322.280436999271	1133.169728569725	43.820322400792	287.983718083363	1035.935903139596	1082.725950987589	94.208419400672	1229.437708952101	907.360003067471	92.242585795804	977.493718198020	1119.521221756781	711.177209100913	1071.621397961755	875.161313439834	732.015568041817	
109	28.312000000000	846.104216875741	1012.654206048173	427.140457222608	1053.438729776296	1423.522244585935	229.395265287542	1147.003752183697	1353.043472335409	396.373037897485	1066.249322599675	1442.918996970392	563.771069609496	1061.098718342160	1491.916640049663	380.486147831621	1070.340872751379	946.380573881902	546.492914372168	1059.757900155919	961.681852293613	271.789529970091	1160.154151717866	791.226081638546	526.530984881028	1128.985418214691	671.681896266111	610.420936336341	1221.878275072638	635.813654438707	534.606320996226	1256.690750284192	536.954234992135	562.713251584480	1087.581862722750	746.069472475114	296.804399727743	982.922765948881	639.798597222896	241.811217188022	1060.527257062950	553.218996362917	299.427060931773	1052.823163246095	484.763439456625	310.062077071177	1023.284938506793	416.085738966791	304.495913932199	923.677479389966	306.160431257382	260.703907889967	974.591329625268	193.379515191323	330.724143893072	1209.294558097615	448.740650507889	576.213470066670	1116.121950289446	369.815536998581	644.690838104224	1144.476927625208	260.660419058530	601.825829913020	984.942743343509	124.372882075807	584.146921691853	1163.014299049462	137.327402791550	625.936729416212	1061.370049425377	99.182421846014	660.890136291557	1263.917418738720	59.975136786058	661.166998316387	844.363278217270	40.120026798562	385.716821821459	913.728859813436	35.384704887633	301.183123634209	998.365251042560	96.202249308778	322.400103634557	1125.102054080617	43.593544448031	288.011564527780	1038.722094840397	1083.217473852498	92.695170340319	1237.028278629509	913.607978954649	91.565647409497	973.347118845003	1120.740688326612	712.700346193368	1054.978488531609	872.301224028217	740.024722921720	
